<svg xmlns="http://www.w3.org/2000/svg" width="453" height="109.585" viewBox="0 0 453 109.585">
  <g id="karte" transform="translate(-257 -248.228)">
    <path id="map-regular" d="M49.1,32.307a2.092,2.092,0,0,1,.9,1.719V63.193a2.077,2.077,0,0,1-1.345,1.944L34.071,70.693a2.037,2.037,0,0,1-1.4.026L16.71,65.406,2.821,70.7A2.08,2.08,0,0,1,0,68.748V39.582a2.065,2.065,0,0,1,1.345-1.944l14.583-5.556a2.037,2.037,0,0,1,1.4-.026L33.29,37.368l13.889-5.3a2.087,2.087,0,0,1,1.927.234ZM4.167,41.014v24.7l10.417-3.967v-24.7ZM31.25,65.858V41.083l-12.5-4.167V61.691Zm4.167-.13L45.833,61.76v-24.7L35.417,41.014V65.727Z" transform="translate(257 233.391)"/>
    <path id="map-pin-solid" d="M16,12.5A12.5,12.5,0,1,1,28.5,25,12.5,12.5,0,0,1,16,12.5ZM28.5,6.944a1.389,1.389,0,0,0,0-2.778A8.335,8.335,0,0,0,20.167,12.5a1.389,1.389,0,1,0,2.778,0A5.561,5.561,0,0,1,28.5,6.944ZM25.722,41.667V27.526a15.452,15.452,0,0,0,5.556,0V41.667a2.778,2.778,0,1,1-5.556,0Z" transform="translate(669 304.228)"/>
    <path id="Pfad_1" data-name="Pfad 1" d="M297.914,310.507s33.219,27.239,84.127,25.394,66.814-34.921,118.734-30.76,42,36.323,88.946,47.4,98.847-3.08,98.847-3.08" fill="none" stroke="#212121" stroke-linecap="round" stroke-width="2" stroke-dasharray="10"/>
    <path id="map-pin-solid-2" data-name="map-pin-solid" d="M16,12.5A12.5,12.5,0,1,1,28.5,25,12.5,12.5,0,0,1,16,12.5ZM28.5,6.944a1.389,1.389,0,0,0,0-2.778A8.335,8.335,0,0,0,20.167,12.5a1.389,1.389,0,1,0,2.778,0A5.561,5.561,0,0,1,28.5,6.944ZM25.722,41.667V27.526a15.452,15.452,0,0,0,5.556,0V41.667a2.778,2.778,0,1,1-5.556,0Z" transform="translate(464.741 248.228)"/>
  </g>
</svg>
